<?xml version='1.0' encoding='iso-8859-1'?>
<!DOCTYPE svg PUBLIC '-//W3C//DTD SVG 1.1//EN' 'http://www.w3.org/Graphics/SVG/1.1/DTD/svg11.dtd'>
<!-- Uploaded to: SVG Repo, www.svgrepo.com, Generator: SVG Repo Mixer Tools -->
<svg fill="#000000" height="800px" width="800px" version="1.1" xmlns="http://www.w3.org/2000/svg" viewBox="0 0 297 297" xmlns:xlink="http://www.w3.org/1999/xlink" enable-background="new 0 0 297 297">
  <g>
    <path d="m217.412,157.164c-8.192-10.477-20.802-17.199-34.922-17.199-24.63,0-44.668,20.461-44.668,45.611 0,17.755 12.837,38.291 38.154,61.039 17.841,16.03 35.43,27.372 36.17,27.848 1.605,1.029 3.435,1.544 5.266,1.544 1.831,0 3.662-0.515 5.266-1.544 0.741-0.476 18.328-11.817 36.17-27.849 25.315-22.748 38.152-43.284 38.152-61.038 0-25.15-20.037-45.611-44.667-45.611-14.119,0-26.729,6.723-34.921,17.199z"/>
    <path d="m133.352,223.009c-8.03-12.849-12.103-25.442-12.103-37.433 0-34.288 27.473-62.185 61.241-62.185 12.693,0 24.795,3.922 34.922,11.088 10.126-7.166 22.227-11.088 34.921-11.088 5.253,0 10.352,0.677 15.22,1.944 4.259-10.244 6.409-20.005 6.409-29.244 0-41.41-32.911-75.099-73.363-75.099-27.17,0-50.936,15.194-63.616,37.721-12.68-22.526-36.448-37.721-63.62-37.721-40.453,0.001-73.363,33.69-73.363,75.1 0,29.981 22.491,65.396 66.85,105.262 32.026,28.784 63.54,49.109 64.866,49.961 1.605,1.03 3.437,1.545 5.267,1.545 1.831,0 3.663-0.515 5.268-1.545 0.403-0.259 3.613-2.331 8.766-5.882-7.21-7.66-13.125-15.163-17.665-22.424z"/>
  </g>
</svg>